<svg width="130" height="130" viewBox="0 0 130 130" fill="none" xmlns="http://www.w3.org/2000/svg">
    <path d="M64.994 0a65 65 0 1 1-45.959 19.041A64.8 64.8 0 0 1 64.995 0m45.211 19.79A63.939 63.939 0 1 0 128.933 65a63.74 63.74 0 0 0-18.731-45.21z" fill="#fff"/>
    <path d="M64.994 17.33A47.678 47.678 0 1 1 31.3 31.306 47.52 47.52 0 0 1 64.994 17.33m32.96 14.714A46.603 46.603 0 1 0 111.605 65a46.46 46.46 0 0 0-13.653-32.959z" fill="#fff"/>
    <path d="m13.732 68.912-.024-1.327h-.101l-.265.027-.38.026c-.14 0-.284.016-.435.019l-6.808.12-.082-4.368 7.997-.14-.024-1.327h-.101l-.266.027-.379.026c-.14 0-.284.016-.435.019l-7.755.135.122 6.975.112-.016.3-.032q.188-.018.421-.032c.157 0 .316-.018.48-.02l7.625-.134zm.14-9.817 1.03-5.293-.993-.265s0 .088-.016.265-.047.42-.1.743l-.573 3.144-3.086-.6.77-3.417-1.062-.265-.618 3.51-3.022-.586.592-2.839q.05-.228.103-.44l.101-.385a6 6 0 0 1 .077-.265l.032-.104-.979-.265-1.061 5.43h.114l.294.032c.122 0 .266.032.414.056q.225.034.475.08l7.51 1.459zm1.51-7.741.427-1.245-.1-.023-.266-.07-.366-.103c-.136-.04-.266-.082-.414-.13l-1.857-.64.424-1.23c.151-.426.224-.875.215-1.327a3.1 3.1 0 0 0-.252-1.167 2.76 2.76 0 0 0-1.64-1.51 3.03 3.03 0 0 0-1.591-.146 2.5 2.5 0 0 0-1.311.74 4.4 4.4 0 0 0-.94 1.64l-.819 2.372.111.024.287.071c.12.03.265.07.403.112s.303.09.457.143zm-6.864-4.739c.111-.334.28-.648.496-.926.171-.222.39-.403.64-.53.228-.11.477-.169.73-.173.26-.002.518.042.764.13.33.108.63.296.872.547.225.235.375.531.433.852.06.363.023.736-.106 1.082l-.425 1.231-3.714-1.282.324-.941zm9.745-7.757-2.242-4.423a4 4 0 0 0-.199-.374c-.069-.109-.132-.225-.193-.321l-.146-.228-.059-.085.037-.037.11.082q.11.079.315.218c.138.093.302.19.493.305l5.4 3.117.644-1.117-.093-.042-.246-.117-.335-.175c-.124-.064-.265-.133-.382-.207l-6.781-3.916-.562 1.096 2.255 4.473q.076.15.164.302l.165.287.13.21.05.082-.019.034h-.512c-.15 0-.313 0-.488.016l-5.126.316-.53 1.026.125.056.313.151c.13.064.265.133.419.213s.297.156.44.241l6.495 3.749.568-.984-.093-.043-.231-.109-.308-.154a7 7 0 0 1-.318-.17l-4.245-2.445a5 5 0 0 0-.507-.266l-.371-.185-.146-.07v-.04h.562c.165 0 .343 0 .53-.02L18.174 39l.09-.154zm2.061-12.987a9 9 0 0 1 1.117-1.037c.18-.151.348-.292.494-.425l-.637-.796q-.246.218-.512.435a9 9 0 0 0-.53.462 6 6 0 0 0-.531.546 4.2 4.2 0 0 0-.892 1.571 3.4 3.4 0 0 0-.08 1.619c.116.568.341 1.109.664 1.591.37.561.816 1.068 1.327 1.505.445.393.954.706 1.507.926.502.195 1.04.286 1.578.265a3.7 3.7 0 0 0 1.536-.4 4.6 4.6 0 0 0 1.38-1.1q.31-.353.573-.745a5 5 0 0 0 .334-.578q.09-.183.16-.377.022-.065.04-.132l-.818-.422-.09.201q-.142.274-.316.531a7 7 0 0 1-.594.78 3.1 3.1 0 0 1-.918.75 2.4 2.4 0 0 1-.98.266 2.9 2.9 0 0 1-.994-.127 4.3 4.3 0 0 1-.976-.438 6.6 6.6 0 0 1-.916-.669 5 5 0 0 1-.907-1.029 3.6 3.6 0 0 1-.49-1.111 2.5 2.5 0 0 1-.022-1.094c.077-.361.246-.696.49-.973zm9.15 1.99 1.009-.846-.074-.072-.191-.197c-.08-.082-.165-.172-.266-.265-.1-.093-.19-.212-.286-.326l-1.881-2.242.607-.51 5.065 1.205 1.122-1.027h-.111l-.281-.034-.38-.058a7 7 0 0 1-.4-.08l-4.577-1.08a85 85 0 0 0-.037-1.642 39 39 0 0 0-.056-1.247 26 26 0 0 0-.074-.95c-.026-.278-.061-.53-.096-.759a24 24 0 0 0-.11-.676l-.998.838q.057.291.106.581t.09.64.077.825q.035.473.069 1.133.035.661.069 1.565l-.685.576-2.55-3.067-.976.902.083.077.212.212a14 14 0 0 1 .61.669l4.91 5.852zm6.424-5.412 1.04-.576.592-7.545a6 6 0 0 0 0-.664c0-.193-.024-.347-.04-.459l-.024-.172.05-.013.056.15q.06.148.167.39.109.243.266.531l3.048 5.498 1.151-.637-.058-.085-.151-.228-.202-.321a8 8 0 0 1-.22-.374l-3.791-6.853-1.009.631-.58 7.429v.504c0 .164 0 .313.015.446.016.132.016.241.022.32s0 .123 0 .123l-.061.018-.072-.183c-.048-.12-.114-.265-.202-.467-.087-.201-.196-.4-.318-.628l-2.95-5.33-1.13.7.066.093.167.25q.105.156.226.355c.082.132.164.265.244.413l3.714 6.684zm9.339-15.59q.386-.126.737-.331.3-.185.555-.425.221-.201.4-.44.151-.19.266-.404l-.91-.565a8 8 0 0 1-.345.552q-.178.256-.417.456a1.73 1.73 0 0 1-1.204.393 2.2 2.2 0 0 1-.597-.127 7 7 0 0 1-.6-.244l-.414.997q.213.105.438.175.278.092.568.125.347.038.695 0 .417-.042.814-.172zm-.433 10.71 1.13-.366L47.96 9.91q.09-.32.135-.65.04-.288.048-.461c.005-.117 0-.173 0-.176h.053s0 .056.026.16c.027.103.05.241.09.414q.061.258.162.573l1.943 5.977 1.252-.406-.043-.093-.103-.265q-.064-.157-.138-.353a7 7 0 0 1-.143-.409L48.81 6.78l-1.112.427-1.99 7.187a6 6 0 0 0-.112.488q-.042.243-.069.443-.026.201-.037.321c-.008.08 0 .122 0 .125h-.063s0-.07-.035-.191c-.034-.122-.058-.292-.108-.499s-.115-.43-.194-.68l-1.886-5.807-1.24.48.048.104.117.265q.074.175.154.393.085.219.162.454l2.36 7.266zm16.842-3.801s0-.037.03-.114c.028-.077.057-.215.118-.406.062-.191.146-.454.266-.796s.265-.754.44-1.26l1.327-3.667q.337-.923.517-1.592.182-.659.25-1.008a5 5 0 0 0 .063-.353l-1.146.08s0 .087-.04.265-.077.409-.151.72c-.074.31-.172.673-.305 1.095l-.759 2.332c-.085.265-.156.493-.218.706a9 9 0 0 0-.135.53c-.032.143-.047.196-.047.2h-.046s-.029-.07-.085-.194a15 15 0 0 0-.589-1.207l-2.244-4.142-1.348.133.072.108q.068.105.18.284c.075.12.16.266.247.406.088.14.18.305.265.467l2.919 5.306q-.182.428-.33.796c-.097.244-.188.488-.265.714-.076.225-.159.454-.233.674l1.263-.088zm11.143.472 1.305.16v-.37c0-.106.013-.238.024-.379q.015-.21.042-.432l.956-7.774-1.327-.098v.414c0 .127-.013.265-.024.422-.01.156-.03.315-.048.48l-.31 2.523-4.49-.552.478-3.892-1.326-.098v.414c0 .124-.013.265-.027.422q-.018.233-.045.48l-.928 7.572 1.305.159v-.369c0-.109.013-.239.024-.38q.015-.21.042-.432l.361-2.942 4.49.552-.508 4.12zm4.173.692 1.13.367 5.924-4.712q.257-.213.489-.451c.135-.14.236-.266.307-.343a1 1 0 0 0 .11-.135l.044.03-.071.143q-.067.143-.17.387a9 9 0 0 0-.207.557l-1.942 5.978 1.255.41.021-.1.064-.265c.026-.112.058-.231.098-.367s.077-.265.124-.416l2.42-7.447-1.135-.308-5.837 4.646c-.13.108-.265.222-.374.336s-.223.218-.316.316l-.22.236-.082.093-.056-.032s.032-.06.085-.177.124-.266.204-.467c.08-.202.16-.417.242-.664l1.886-5.807-1.284-.35-.024.111-.061.295a9 9 0 0 1-.106.408q-.06.226-.136.462l-2.36 7.266zm9.509 3.375 2.334 1.189c.39.204.807.353 1.24.44.369.073.75.073 1.119 0 .344-.07.667-.22.942-.44.3-.246.543-.554.713-.902a2.2 2.2 0 0 0 .234-.873 2.06 2.06 0 0 0-.162-.9 2.3 2.3 0 0 0-.592-.814v-.024a2.16 2.16 0 0 0 2.011-1.197 2.24 2.24 0 0 0 .266-1.175 2 2 0 0 0-.462-1.122 3.9 3.9 0 0 0-1.263-.955l-2.388-1.218-.04.106-.11.266a15 15 0 0 1-.168.384q-.096.212-.207.433zm4.356-2.526c.298.145.559.356.761.619.173.23.273.508.29.796a1.7 1.7 0 0 1-.2.867c-.138.29-.354.538-.623.714-.245.154-.53.231-.82.223-.323-.013-.64-.1-.926-.252l-1.326-.68 1.507-2.96 1.342.684zm1.494-3.504c.413.172.75.488.95.889a1.36 1.36 0 0 1-.12 1.17 1.6 1.6 0 0 1-.674.703 1.7 1.7 0 0 1-.584.201h-.098l-1.889-.963 1.31-2.573zm1.196 10.158 4.418 3.094.639-.796-.234-.122a10 10 0 0 1-.639-.396l-2.637-1.8 1.801-2.574 2.81 2.09.682-.862-2.956-1.992 1.767-2.524 2.353 1.696q.189.14.361.265l.311.25.217.18.082.069.632-.796-4.532-3.184-.053.101-.148.265a8 8 0 0 1-.218.356c-.082.127-.17.265-.265.4l-4.399 6.28zm6.27 4.664.915.948.066-.08.18-.204c.075-.085.162-.178.266-.266.103-.087.199-.207.305-.31l1.414-1.366.905.936c.309.328.674.598 1.079.796.361.177.753.28 1.154.305a2.75 2.75 0 0 0 2.088-.777c.398-.366.692-.831.849-1.348a2.5 2.5 0 0 0-.063-1.504 4.4 4.4 0 0 0-1.035-1.592l-1.74-1.802-.072.088-.194.223q-.125.14-.281.308a8 8 0 0 1-.337.342l-5.494 5.306zm7.332-3.955c.243.248.443.536.589.851.116.25.176.521.175.796a1.7 1.7 0 0 1-.177.73 2.2 2.2 0 0 1-.462.62c-.246.247-.55.43-.883.531a1.66 1.66 0 0 1-.956 0 2.13 2.13 0 0 1-.918-.586l-.904-.937 2.831-2.732.692.716zm6.569 7.763q.227.32.414.666.183.339.34.655.16.316.302.575l.923-.435c-.106-.19-.206-.39-.31-.597a19 19 0 0 0-.326-.631 6 6 0 0 0-.425-.655 4.2 4.2 0 0 0-1.326-1.22 3.4 3.4 0 0 0-1.56-.441 4.5 4.5 0 0 0-1.709.286 7.2 7.2 0 0 0-1.767.963 5.1 5.1 0 0 0-1.241 1.26 3.9 3.9 0 0 0-.621 1.478 3.7 3.7 0 0 0 .045 1.592c.147.575.404 1.116.759 1.592q.276.383.599.727.23.245.488.456.16.129.332.24l.119.068.597-.7-.175-.133a7 7 0 0 1-1.08-1.183 3.1 3.1 0 0 1-.509-1.061 2.45 2.45 0 0 1-.037-1.009 2.9 2.9 0 0 1 .348-.939q.269-.467.644-.854.398-.408.86-.743a5 5 0 0 1 1.207-.653c.382-.142.786-.22 1.194-.228.366-.004.728.073 1.061.226.335.156.624.397.838.698zm-4.123 8.67.558 1.061 7.534.727q.331.025.664.016c.193 0 .347-.019.459-.032l.172-.021v.05l-.151.053q-.146.055-.393.16a5 5 0 0 0-.53.265l-5.551 2.95.618 1.162.085-.058.231-.146.324-.197a9 9 0 0 1 .379-.212l6.919-3.7-.615-1.02-7.429-.71c-.169 0-.339-.017-.504-.017h-.445l-.321.016h-.123l-.018-.063.183-.07c.119-.044.265-.108.472-.193s.403-.188.634-.308l5.391-2.868-.679-1.143-.093.063-.265.165a8 8 0 0 1-.361.22c-.133.08-.265.16-.419.236zm4.71 10.917.363 1.266.096-.038.265-.095.358-.125c.133-.045.265-.09.414-.13l6.582-1.886.441 1.722c.042.167.082.329.111.48s.056.265.072.374.026.149.026.151l1.008-.236-1.907-6.656-.992.244.05.12c.032.076.072.19.125.33s.106.309.167.502l.56 1.767-7.723 2.215zm1.345 5.704.751 5.338 1.021-.08s-.024-.084-.069-.265a9 9 0 0 1-.146-.737l-.488-3.147 3.112-.438.377 3.486 1.095-.09-.559-3.52 3.048-.427.366 2.876q.03.231.045.448l.029.398c.008.12 0 .212.016.284s0 .106 0 .106l1.008-.077-.769-5.479-.109.03-.286.066a14 14 0 0 1-.884.162l-7.577 1.06zm.7 9.62-.024 1.327h.104l.265-.016.379-.016h.436l6.847.12-.082 1.774c0 .173-.019.34-.035.491l-.039.38-.019.15 1.035.07.122-6.922-1.022-.056v.127c0 .083.014.202.022.353s0 .326 0 .53l.018 1.858-8.033-.14zM9.545 88.824l.53 1.202.091-.05.241-.13.337-.173c.125-.064.266-.125.393-.186l1.796-.796.53 1.191c.18.413.433.79.746 1.112.279.29.611.521.98.682a2.75 2.75 0 0 0 2.228-.016 3.03 3.03 0 0 0 1.26-.976c.296-.42.454-.922.454-1.436a4.4 4.4 0 0 0-.433-1.838l-1.018-2.287-.099.058-.265.144a9 9 0 0 1-.371.193q-.208.106-.433.207zm8.243-1.21c.145.319.235.66.265 1.008.025.278-.014.558-.11.82a1.75 1.75 0 0 1-.417.624 2.2 2.2 0 0 1-.648.424 2.1 2.1 0 0 1-1.01.196 1.66 1.66 0 0 1-.897-.329 2.1 2.1 0 0 1-.65-.862l-.53-1.191 3.594-1.592.406.91zm-3.626 10.018 3.093 4.417.873-.53-.178-.194a12 12 0 0 1-.464-.589l-1.857-2.595 2.573-1.801 1.924 2.918.933-.565-2.096-2.884 2.52-1.767 1.633 2.388c.085.13.17.265.244.38l.207.34.143.243.053.093.862-.53-3.183-4.532-.085.074-.226.189q-.143.119-.326.265a8 8 0 0 1-.388.287zm6.043 7.805.897.963.066-.077.186-.201a5 5 0 0 1 .265-.265c.101-.093.202-.202.31-.306l1.728-1.61 1.133 1.215-1.25 3.961 1.032 1.014s0-.061.03-.17.047-.252.087-.425q.059-.26.14-.552l.971-3.247c.292.176.614.293.95.345.34.049.687.019 1.014-.088a2.7 2.7 0 0 0 .995-.604 2.53 2.53 0 0 0 .753-1.221 2.5 2.5 0 0 0-.093-1.454 4.7 4.7 0 0 0-1.018-1.592l-1.71-1.83-.073.087-.197.22q-.124.14-.289.303c-.109.109-.223.226-.342.337l-5.582 5.205zm7.402-3.825c.314.315.56.692.722 1.106.118.307.134.644.045.96A2.03 2.03 0 0 1 27 104.954c-.303.072-.62.052-.91-.058a2.3 2.3 0 0 1-.892-.613l-.889-.952 2.616-2.441.68.73zm5.089 11.846 4.534-2.009a6 6 0 0 0 .385-.178c.119-.061.233-.119.331-.177l.234-.136.087-.053.037.04-.087.106q-.086.108-.234.303-.146.197-.331.477l-3.396 5.229 1.082.703.048-.09.13-.241.188-.329q.107-.182.228-.369l4.267-6.569-1.062-.615-4.587 2.019a7 7 0 0 0-.313.148l-.294.149-.218.119-.085.045-.032-.021v-.143c0-.093 0-.213.019-.364s0-.313 0-.488l-.048-5.134-.981-.554-.064.122-.167.305a10 10 0 0 1-.236.409c-.088.143-.173.289-.266.427l-4.083 6.29.953.618.047-.09.122-.225q.076-.138.17-.3c.064-.109.122-.21.189-.308l2.653-4.104q.173-.267.302-.491c.085-.149.154-.265.204-.361l.077-.14h.04s0 .055-.016.159c-.016.103-.02.236-.032.4-.01.165 0 .343 0 .531l.05 4.802.152.098zm20.89 1.729-1.173-.265-.018.111-.059.295a11 11 0 0 1-.212.878l-1.223 4.261a3.2 3.2 0 0 1-.406.897 2.2 2.2 0 0 1-.623.62 1.9 1.9 0 0 1-.82.29c-.335.033-.673 0-.995-.099a2.8 2.8 0 0 1-.942-.458 1.9 1.9 0 0 1-.56-.685 2.1 2.1 0 0 1-.199-.857 3.2 3.2 0 0 1 .133-.974l1.592-5.587-1.295-.305-.018.111-.059.295a9 9 0 0 1-.093.411 9 9 0 0 1-.119.467l-1.218 4.245a4.1 4.1 0 0 0-.172 1.411 2.83 2.83 0 0 0 1.165 2.16c.4.288.85.501 1.326.629a4.5 4.5 0 0 0 1.592.183 2.92 2.92 0 0 0 2.202-1.242c.257-.369.45-.779.57-1.212l1.592-5.588zm8.166 10.238 1.061-.037.796-8.986-1.165-.037v.839c0 .156-.015.315-.031.48l-.42 4.797c0 .13-.015.265-.018.398-.003.132 0 .265 0 .382v.398h-.04l-.04-.104-.108-.265a8 8 0 0 0-.334-.69l-3.734-6.726-1.125-.034v.838c0 .157-.015.319-.029.481l-.666 7.611 1.147.101v-.748c0-.141.013-.284.026-.433l.43-4.913v-1.114h.037l.05.119q.047.113.123.281.073.17.156.34c.056.111.1.209.143.286l3.746 6.729zm6.18-.103 1.31-.114s0-.035-.019-.101-.026-.156-.045-.265q-.027-.164-.053-.377a11 11 0 0 1-.048-.432l-.682-7.803-1.326.18.021.112.05.297q.033.186.061.419.033.233.056.478l.666 7.611zm8.876-3.627a9 9 0 0 0-.053.531c-.01.164-.021.318-.024.448v.422h-.05l-.08-.183c-.053-.117-.127-.265-.225-.464a10 10 0 0 0-.348-.634l-3.518-5.837-1.276.326.12.162c.08.106.185.265.32.462.136.196.29.445.465.735l4.13 6.784 1.102-.292 1.09-6.981q.067-.446.12-.841c.034-.262.052-.53.066-.766.013-.236 0-.502 0-.756l-1.09.212v.618c0 .207-.017.427-.038.653-.021.225-.047.475-.085.74l-.618 4.648zm7.46.695 4.999-2.019-.318-.984-.228.13q-.23.122-.68.321l-2.947 1.231-1.178-2.918 3.284-1.218-.353-1.043-3.281 1.409-1.154-2.855 2.703-1.061.424-.154.38-.124.265-.085.104-.029-.319-.961-5.128 2.072.053.101.133.265q.083.169.18.377.098.209.191.44l2.865 7.095zm9.021-3.998 1.14-.658-.06-.082-.154-.225a8 8 0 0 1-.207-.319q-.112-.177-.225-.371l-1.197-2.048 1.438-.831 3.579 2.109 1.218-.777-.16-.066q-.151-.066-.395-.181a7 7 0 0 1-.507-.265l-2.945-1.677c.237-.244.424-.533.55-.849.123-.32.171-.664.14-1.005a2.65 2.65 0 0 0-.366-1.107 2.53 2.53 0 0 0-1.021-1.008 2.5 2.5 0 0 0-1.438-.236 4.6 4.6 0 0 0-1.775.637l-2.168 1.252.067.09.17.242c.071.101.148.22.23.347.083.128.17.266.25.409l3.82 6.617zm-2.064-8.073a3.2 3.2 0 0 1 1.239-.454c.325-.045.656.015.944.173a2.03 2.03 0 0 1 .934 1.626c0 .311-.092.615-.265.873-.205.301-.477.55-.796.727l-1.128.653-1.788-3.099.863-.499zm7.429-5.288q.239-.209.498-.39.24-.166.467-.305l.454-.281q.226-.144.464-.321l-.53-.889q-.26.185-.494.335l-.456.289a7 7 0 0 0-.95.695 3.9 3.9 0 0 0-1.013 1.295c-.2.411-.278.871-.226 1.326.062.451.258.874.563 1.213.208.246.463.45.75.599.256.127.535.201.82.22.292.017.585-.008.87-.074q.465-.105.905-.286.453-.184.854-.311.366-.12.748-.159a1.55 1.55 0 0 1 .645.069c.207.08.39.211.531.382.195.212.307.489.315.777a1.6 1.6 0 0 1-.265.849 3.7 3.7 0 0 1-.764.87q-.323.283-.674.531c-.215.151-.411.265-.584.374-.172.109-.31.173-.408.223l-.154.072.645.743.138-.054q.135-.055.382-.185.3-.166.583-.361.384-.269.738-.576a5 5 0 0 0 1.194-1.446c.239-.434.343-.929.3-1.422a2.35 2.35 0 0 0-.597-1.3 2.3 2.3 0 0 0-.796-.618 2 2 0 0 0-.868-.167 3.8 3.8 0 0 0-.942.154q-.492.14-1.024.342a6 6 0 0 1-1.03.295 1.8 1.8 0 0 1-.827-.024 1.4 1.4 0 0 1-.668-.446 1.17 1.17 0 0 1-.295-.631c-.026-.24.019-.482.13-.696.14-.27.333-.509.568-.703zm10.532 1.176.897-.963-.082-.061-.215-.17q-.132-.106-.292-.244c-.106-.093-.215-.186-.324-.289l-5.706-5.344-.86 1.016.09.069.236.186q.148.117.327.265.18.151.36.319l5.588 5.21zm5.089-6.328.753-1.077-.09-.05-.236-.138q-.145-.088-.324-.2a7 7 0 0 1-.361-.24l-5.608-3.927 1.061-1.425q.155-.206.302-.387a12 12 0 0 1 .345-.406l-.817-.642-3.979 5.672.814.618.061-.114.181-.305c.077-.13.172-.265.286-.446l1.022-1.546 6.582 4.608zm5.041-8.413.53-1.201-.098-.032-.265-.09-.356-.136a8 8 0 0 1-.4-.167l-2.157-.963-2.274-3.152a14 14 0 0 0-.724-.974q-.323-.39-.51-.586a5 5 0 0 0-.193-.196l-.504 1.133s.106.098.305.3q.297.302.809.936l2.067 2.584-5.139.425-.531 1.326.119-.021.313-.05.441-.064.501-.064 4.818-.456 3.245 1.443z" fill="#fff"/>
    <path fill-rule="evenodd" clip-rule="evenodd" d="M10.75 77.273a1.111 1.111 0 1 1 0 2.223 1.111 1.111 0 0 1 0-2.223m108.491 0a1.113 1.113 0 1 1 0 2.226 1.113 1.113 0 0 1 0-2.226" fill="#fff"/>
    <path d="M65.84 30.447v.822h4.306v-.822h-1.382v-7.965h-.199l-3.048.698.06.658 1.967-.175v6.784zm10.706-7.207-.123-.955c-.959.09-1.889.38-2.73.852a4.3 4.3 0 0 0-1.692 1.83 6.5 6.5 0 0 0-.581 2.89c-.004.473.063.944.196 1.398.12.405.312.784.568 1.12.242.313.55.567.905.745a2.7 2.7 0 0 0 1.204.265c.431.007.86-.072 1.26-.233a2.5 2.5 0 0 0 .905-.634 2.65 2.65 0 0 0 .53-.926 3.4 3.4 0 0 0 .184-1.117 3.1 3.1 0 0 0-.186-1.09 2.4 2.4 0 0 0-.512-.797 2.2 2.2 0 0 0-.756-.504 2.5 2.5 0 0 0-.924-.172 3.4 3.4 0 0 0-.907.12c-.27.074-.526.192-.759.347a2 2 0 0 0-.549.552 4.6 4.6 0 0 1 .345-1.375 3.4 3.4 0 0 1 .647-.992c.256-.273.554-.505.881-.687a5 5 0 0 1 1.014-.416 8 8 0 0 1 1.08-.229zm-3.747 5.466a2.3 2.3 0 0 1 .104-.703 1.7 1.7 0 0 1 .31-.579c.145-.17.326-.304.53-.392.232-.099.482-.148.733-.144.287-.006.569.071.812.223.227.147.406.357.515.605.125.284.187.592.18.902a2.5 2.5 0 0 1-.17.974c-.104.266-.29.493-.53.647a1.7 1.7 0 0 1-.918.233 1.4 1.4 0 0 1-.669-.156c-.19-.1-.357-.239-.488-.409a1.8 1.8 0 0 1-.3-.567 2 2 0 0 1-.1-.632zm-19.666 1.741v.822h4.305v-.822h-1.382v-7.965h-.199l-3.048.698.064.658 1.965-.175v6.784zm6.087.088.126.947c.96-.09 1.89-.38 2.73-.852a4.3 4.3 0 0 0 1.692-1.83 6.5 6.5 0 0 0 .581-2.884 4.8 4.8 0 0 0-.196-1.398 3.5 3.5 0 0 0-.568-1.12 2.6 2.6 0 0 0-.904-.745 2.7 2.7 0 0 0-1.205-.266 3.2 3.2 0 0 0-1.26.234 2.5 2.5 0 0 0-.902.631 2.7 2.7 0 0 0-.53.929 3.3 3.3 0 0 0-.184 1.117c-.005.372.06.741.188 1.09.113.302.286.577.51.81.214.217.472.388.756.5.293.118.607.178.923.176q.462.002.908-.12a2.6 2.6 0 0 0 .756-.347c.212-.147.392-.334.53-.552-.04.474-.155.939-.34 1.377a3.4 3.4 0 0 1-.641.992 3.6 3.6 0 0 1-.87.671 5 5 0 0 1-1.014.417 7.5 7.5 0 0 1-1.08.223zm3.747-5.44c.003.235-.032.468-.103.69a1.7 1.7 0 0 1-.308.571c-.145.17-.326.303-.53.39a1.8 1.8 0 0 1-.736.143 1.38 1.38 0 0 1-1.326-.864 2.3 2.3 0 0 1-.18-.953 2.15 2.15 0 0 1 .182-.913c.112-.255.297-.472.531-.623.271-.16.582-.24.897-.23.234-.004.465.05.674.156.198.098.371.24.506.416.132.172.232.365.297.57q.1.317.101.648zm-28.878 8.384h62.408v43.324a31.502 31.502 0 0 1-63.003 0V33.479zm30.905 1.19H34.686v42.134a30.311 30.311 0 0 0 60.62 0V34.67z" fill="#fff"/>
    <path d="M78.193 81.54h.014l.392.103v18.19l-.631-.128c-4.487-.913-8.859-.212-12.974 1.592-4.11-1.8-8.49-2.494-12.973-1.592l-.632.127V81.648l.393-.103h.016a15 15 0 0 1 1.926-.364 21 21 0 0 1 2.083-.151c3.465-.082 7.213.626 9.187 1.91 1.974-1.281 5.723-1.992 9.188-1.91q1.045.023 2.082.151.976.12 1.927.364zm-24.267 3.979a21 21 0 0 1 1.886-.13c2.563-.061 5.277.31 7.299 1.03v.737c-1.94-.743-4.683-1.133-7.283-1.061-.65.016-1.29.058-1.905.132v-.7zm0 2.918a21 21 0 0 1 1.886-.13c2.563-.06 5.277.31 7.299 1.032v.738c-1.94-.743-4.683-1.133-7.283-1.061-.65.015-1.29.058-1.905.132v-.7zm0 2.919a21 21 0 0 1 1.886-.13c2.563-.061 5.277.31 7.299 1.029v.738c-1.94-.743-4.683-1.133-7.283-1.062-.65.016-1.29.059-1.905.133v-.7zm0 2.918a21 21 0 0 1 1.886-.13c2.563-.061 5.277.31 7.299 1.032v.738c-1.94-.743-4.683-1.133-7.283-1.062-.65.016-1.29.059-1.905.133v-.7zm10.538 5.651V83.837c-1.767-1.191-5.32-1.857-8.639-1.772q-.99.021-1.974.143-.736.091-1.414.244v16.101a22 22 0 0 1 12.027 1.372m11.602-13.7a20 20 0 0 0-1.903-.136c-2.6-.063-5.343.327-7.282 1.061v-.737c2.021-.719 4.735-1.093 7.298-1.03.64.017 1.276.059 1.886.13zm0 2.918a20 20 0 0 0-1.903-.135c-2.6-.061-5.343.326-7.282 1.06v-.737c2.021-.719 4.735-1.093 7.298-1.032.64.016 1.276.059 1.886.13zm0 2.918a20 20 0 0 0-1.903-.135c-2.6-.061-5.343.326-7.282 1.061v-.737c2.021-.72 4.735-1.093 7.298-1.03.64.016 1.274.059 1.886.13zm0 2.919a20 20 0 0 0-1.903-.136c-2.6-.06-5.343.327-7.282 1.062v-.738c2.021-.719 4.735-1.093 7.298-1.032.64.016 1.276.058 1.886.13v.713m1.48-12.533a15 15 0 0 0-1.414-.245 20 20 0 0 0-1.974-.143c-3.319-.08-6.871.581-8.638 1.773v16.08a22 22 0 0 1 12.026-1.364zM34.078 76.27H95.91v1.06H34.078z" fill="#fff"/>
    <path d="m83.55 58.742 5.014 9.774.058.111v7.214H87.23c-2.905-.058-5.515-.653-5.584-6.8l-3.465-2.356-.106.074c-.662.455-1.374.832-2.123 1.123a9 9 0 0 1-1.99.517l-.753 3.797h.143c1.282.071 1.993.631 2.388 1.501s.427 1.926.427 3.12v.53h-9.933v-5.08h-2.048v-1.194c0-.047.016-.095.026-.143v-.226l.027-.092.03-.093a4 4 0 0 1 .321-.735c.21-.375.478-.713.795-1.003q.175-.156.366-.292h-5.635a5.8 5.8 0 0 1-1.825 1.144q-.218.082-.417.135v2.396h.032c1.462 0 2.25.578 2.68 1.512.382.849.43 1.937.43 3.13v.531H43.427V72.27h-2.045v-.53a4 4 0 0 1 1.724-3.296h-1.724v-.53a4.05 4.05 0 0 1 1.804-3.351c.082-.053.167-.106.265-.154v-2.255h-1.008l-.14-.31a11.1 11.1 0 0 1-.921-4.567c.003-2.234.59-4.43 1.703-6.367a11.2 11.2 0 0 1 5.08-4.648 12.3 12.3 0 0 1 5.1-1.061h14.273a7.75 7.75 0 0 1 2.577-2.354q.559-.314 1.162-.53a2.75 2.75 0 0 1-.125-2.269c.177-.42.474-.778.854-1.029a2.4 2.4 0 0 1 1.282-.395c.907-.019 1.907.448 2.637 1.607h6.58c.729-1.159 1.73-1.629 2.636-1.607.456.008.9.145 1.282.395.383.255.681.618.857 1.043.337.796.265 1.857-.53 2.955 3.278 6.214 1.188 9.58-2.757 12.822v.088c-.043.95-.188 1.893-.433 2.812zM59.104 74.395v1.9h.85c-.014-.86-.08-1.619-.327-2.157-.247-.539-.756-.895-1.722-.895h-1.088V68.87l.449-.072a3.3 3.3 0 0 0 .645-.172q.18-.07.36-.157h-3.926a5.8 5.8 0 0 1-1.828 1.144q-.217.08-.425.137l-.138.035-.957 2.457a2.41 2.41 0 0 1 1.931 1.45c.329.715.409 1.609.425 2.593h3.841v-1.9h.53v1.9h.85v-1.9zm-7.754 0v1.9h.952c-.013-.86-.08-1.619-.326-2.157-.247-.539-.757-.895-1.722-.895h-.77l.279-.716 1.327-3.385.11-.287.218-.034a5.65 5.65 0 0 0 4.134-5.428 5.64 5.64 0 0 0-1.608-3.967h1.374q.113.152.213.31a6.7 6.7 0 0 1 1.077 3.64c0 1.456-.475 2.87-1.353 4.03h8.972a4 4 0 0 1 .483-1.48 4.03 4.03 0 0 1 1.531-1.52l-.04-4.977h1.062l.034 5.306v.342l-.31.141a2.97 2.97 0 0 0-1.701 2.173h2.011v1.51l-.287.13h-.039l-.072.034h-.048l-.031.016-.027.013-.027.013-.026.014h-.135l-.046.032h-.016l-.074.058-.04.032-.031.029-.05.045-.104.1-.035.035-.029.032-.016.019-.026.031-.016.022-.016.021-.037.045-.07.093a3 3 0 0 0-.174.265q-.046.08-.085.16v.033l-.016.038v.499l-.037.111v.175l-.024.096v.058h2.01v5.065h3.686v-1.897h.53v1.897h.85v-1.897h.53v1.897h.849v-1.897h.53v1.897h.85c-.014-.86-.08-1.618-.327-2.157s-1.156-.833-2.114-.833h-1.138l.241-1.205.281-1.411.433-2.149.127-.65.077-.385.21-1.045.053-.265.25-.112a5.6 5.6 0 0 0 1.705-1.167 5.65 5.65 0 0 0 1.653-3.966v-1.441h1.061v1.443q0 .375-.042.749a6.7 6.7 0 0 1-1.916 3.963c-.09.09-.175.17-.265.242s-.173.15-.266.225a6.7 6.7 0 0 1-1.252.796l-.087.435a8 8 0 0 0 1.398-.4 9.3 9.3 0 0 0 1.91-1.006c2.918-1.98 4.972-5.572 5.383-9.156-.796.605-1.642 1.215-2.52 1.857l-.841.587-.308.22-.308-.22-.83-.597c-5.922-4.245-10.448-7.514-6.574-15.2a6.4 6.4 0 0 0-1.33.692 6.7 6.7 0 0 0-1.905 1.961l-.154.244H53.247a11.2 11.2 0 0 0-4.666.956 10.14 10.14 0 0 0-4.603 4.215 11.76 11.76 0 0 0-1.558 5.837 10.2 10.2 0 0 0 .717 3.826h.34v-1.669h1.06v2.414h-.05v3.237l-.308.14a2.95 2.95 0 0 0-1.695 2.168h2.008v1.51l-.307.14a2.95 2.95 0 0 0-1.695 2.17h2.01v5.065h3.582v-1.9h.53v1.9h.85v-1.9h.53v1.9h.85v-1.9zM86.72 72.9v1.873c.175 0 .356.019.53.022h.316v-5.917l-4.473-8.718a14.35 14.35 0 0 1-4.038 5.837l3.41 2.316.23.157v.265c0 3.47.868 4.943 2.123 5.571v-1.435h.53v1.648q.418.126.85.177v-1.825zM75.254 47.047h2.918l-.072.51c-.071.517-.151.957-.225 1.38-.266 1.549-.499 2.822.127 4.316h2.388c.626-1.491.4-2.767.127-4.317-.074-.422-.154-.862-.225-1.38l-.072-.509h2.918l-1.891.897c.045.281.095.565.143.838.316 1.791.573 3.248-.313 5.11l-.122.265h-3.52l-.123-.265c-.888-1.857-.631-3.319-.313-5.11.048-.265.098-.557.146-.838l-1.891-.894zm3.947 5.726.971-.717-.371-.568h-1.202l-.371.568.97.717zm-.53 4.96.53.378.53-.377c5.657-4.067 9.947-7.163 5.922-14.494l-.17-.313.226-.265c.709-.863.817-1.63.592-2.165a1.26 1.26 0 0 0-.467-.56 1.36 1.36 0 0 0-.719-.223c-.618-.013-1.327.374-1.857 1.327l-.149.265H75.3l-.149-.265c-.53-.963-1.234-1.35-1.857-1.327a1.36 1.36 0 0 0-.72.223 1.26 1.26 0 0 0-.466.56c-.225.53-.117 1.302.592 2.165l.225.265-.17.313c-4.022 7.341.266 10.427 5.922 14.494z" fill="#fff"/>
    <path fill-rule="evenodd" clip-rule="evenodd" d="M78.177 47.031a1.592 1.592 0 0 1-2.918 0zm4.98 0a1.59 1.59 0 0 1-2.918 0z" fill="#fff"/>
</svg>
