<svg width="24" height="24" viewBox="0 0 24 24" fill="none" xmlns="http://www.w3.org/2000/svg">
  <path clip-rule="evenodd" d="M6.025 7.048c-1.81 2.713-1.451 6.37.85 8.658l2.55 2.008L11.7 20l2.274-2.286 2.55-2.008c2.302-2.289 2.66-5.945.85-8.658a6.83 6.83 0 0 0-3.062-2.526 6.8 6.8 0 0 0-5.224 0 6.83 6.83 0 0 0-3.063 2.526" stroke="#000" stroke-width="1.5" stroke-linecap="round" stroke-linejoin="round"/>
  <path clip-rule="evenodd" d="M11.7 13.143c1.224-.026 2.2-1.06 2.182-2.317-.016-1.256-1.018-2.263-2.243-2.254S9.425 9.6 9.425 10.857c.013 1.276 1.031 2.299 2.275 2.286" stroke="#000" stroke-width="1.5" stroke-linecap="round" stroke-linejoin="round"/>
</svg>
