<svg width="24" height="24" viewBox="0 0 24 24" fill="none" xmlns="http://www.w3.org/2000/svg">
  <path clip-rule="evenodd" d="M15.763 9H7.637a.823.823 0 0 0-.812.833V16.5c0 1.38 1.091 2.5 2.438 2.5h4.874c.647 0 1.267-.263 1.724-.732a2.53 2.53 0 0 0 .714-1.768V9.833A.823.823 0 0 0 15.763 9m-1.138-2-.103-.21A3.15 3.15 0 0 0 11.7 5a3.15 3.15 0 0 0-2.823 1.79L8.775 7z" stroke="#000" stroke-width="1.5" stroke-linecap="round" stroke-linejoin="round"/>
  <path d="M10.825 12.333a.75.75 0 0 0-1.5 0zm-1.5 3.333a.75.75 0 0 0 1.5 0zm4.75-3.333a.75.75 0 1 0-1.5 0zm-1.5 3.333a.75.75 0 0 0 1.5 0zm2.05-9.416a.75.75 0 0 0 0 1.5zm1.95 1.5a.75.75 0 0 0 0-1.5zm-7.8 0a.75.75 0 1 0 0-1.5zm-1.95-1.5a.75.75 0 0 0 0 1.5zm2.5 6.083v3.333h1.5v-3.333zm3.25 0v3.333h1.5v-3.333zm2.05-4.583h1.95v-1.5h-1.95zm-5.85-1.5h-1.95v1.5h1.95z" fill="#000"/>
</svg>
